<mxfile host="Electron" agent="Mozilla/5.0 (X11; Linux x86_64) AppleWebKit/537.36 (KHTML, like Gecko) draw.io/26.0.9 Chrome/128.0.6613.186 Electron/32.3.0 Safari/537.36" version="26.0.9">
  <diagram name="topology" id="T5tIIpkVZJv-7O254D7j">
    <mxGraphModel dx="2060" dy="1253" grid="1" gridSize="10" guides="1" tooltips="1" connect="1" arrows="1" fold="1" page="1" pageScale="1" pageWidth="850" pageHeight="1100" math="0" shadow="0">
      <root>
        <mxCell id="0" />
        <mxCell id="1" parent="0" />
        <mxCell id="7gA6LYK0TXoG6DX3NfZa-1" value="" style="fontColor=#0066CC;verticalAlign=top;verticalLabelPosition=bottom;labelPosition=center;align=center;html=1;outlineConnect=0;fillColor=#CCCCCC;strokeColor=#6881B3;gradientColor=none;gradientDirection=north;strokeWidth=2;shape=mxgraph.networks.switch;" vertex="1" parent="1">
          <mxGeometry x="160" y="820" width="140" height="60" as="geometry" />
        </mxCell>
        <mxCell id="7gA6LYK0TXoG6DX3NfZa-2" value="" style="fontColor=#0066CC;verticalAlign=top;verticalLabelPosition=bottom;labelPosition=center;align=center;html=1;outlineConnect=0;fillColor=#CCCCCC;strokeColor=#6881B3;gradientColor=none;gradientDirection=north;strokeWidth=2;shape=mxgraph.networks.pc;" vertex="1" parent="1">
          <mxGeometry x="495" y="800" width="150" height="100" as="geometry" />
        </mxCell>
        <mxCell id="7gA6LYK0TXoG6DX3NfZa-3" value="" style="fontColor=#0066CC;verticalAlign=top;verticalLabelPosition=bottom;labelPosition=center;align=center;html=1;outlineConnect=0;fillColor=#CCCCCC;strokeColor=#6881B3;gradientColor=none;gradientDirection=north;strokeWidth=2;shape=mxgraph.networks.web_server;" vertex="1" parent="1">
          <mxGeometry x="160" y="560" width="137.5" height="125" as="geometry" />
        </mxCell>
        <mxCell id="7gA6LYK0TXoG6DX3NfZa-7" value="" style="fontColor=#0066CC;verticalAlign=top;verticalLabelPosition=bottom;labelPosition=center;align=center;html=1;outlineConnect=0;fillColor=#CCCCCC;strokeColor=#6881B3;gradientColor=none;gradientDirection=north;strokeWidth=2;shape=mxgraph.networks.web_server;" vertex="1" parent="1">
          <mxGeometry x="470" y="560" width="137.5" height="125" as="geometry" />
        </mxCell>
        <mxCell id="7gA6LYK0TXoG6DX3NfZa-6" value="" style="fontColor=#0066CC;verticalAlign=top;verticalLabelPosition=bottom;labelPosition=center;align=center;html=1;outlineConnect=0;fillColor=#CCCCCC;strokeColor=#6881B3;gradientColor=none;gradientDirection=north;strokeWidth=2;shape=mxgraph.networks.firewall;" vertex="1" parent="1">
          <mxGeometry x="450" y="600" width="100" height="100" as="geometry" />
        </mxCell>
        <mxCell id="7gA6LYK0TXoG6DX3NfZa-9" value="" style="endArrow=classic;startArrow=classic;html=1;rounded=0;entryX=0.5;entryY=0;entryDx=0;entryDy=0;entryPerimeter=0;" edge="1" parent="1" source="7gA6LYK0TXoG6DX3NfZa-3" target="7gA6LYK0TXoG6DX3NfZa-1">
          <mxGeometry width="50" height="50" relative="1" as="geometry">
            <mxPoint x="474" y="560" as="sourcePoint" />
            <mxPoint x="330" y="610" as="targetPoint" />
          </mxGeometry>
        </mxCell>
        <mxCell id="7gA6LYK0TXoG6DX3NfZa-10" value="" style="endArrow=classic;startArrow=classic;html=1;rounded=0;entryX=0.95;entryY=0.05;entryDx=0;entryDy=0;entryPerimeter=0;exitX=0;exitY=1;exitDx=0;exitDy=0;exitPerimeter=0;" edge="1" parent="1" source="7gA6LYK0TXoG6DX3NfZa-6" target="7gA6LYK0TXoG6DX3NfZa-1">
          <mxGeometry width="50" height="50" relative="1" as="geometry">
            <mxPoint x="484" y="570" as="sourcePoint" />
            <mxPoint x="340" y="620" as="targetPoint" />
          </mxGeometry>
        </mxCell>
        <mxCell id="7gA6LYK0TXoG6DX3NfZa-13" value="" style="endArrow=classic;startArrow=classic;html=1;rounded=0;exitX=0;exitY=0.5;exitDx=0;exitDy=0;exitPerimeter=0;" edge="1" parent="1" source="7gA6LYK0TXoG6DX3NfZa-2" target="7gA6LYK0TXoG6DX3NfZa-1">
          <mxGeometry width="50" height="50" relative="1" as="geometry">
            <mxPoint x="495" y="850" as="sourcePoint" />
            <mxPoint x="300" y="850" as="targetPoint" />
          </mxGeometry>
        </mxCell>
        <mxCell id="7gA6LYK0TXoG6DX3NfZa-12" value="&lt;div&gt;Secflood&lt;/div&gt;&lt;div&gt;192.168.0.10&lt;/div&gt;" style="text;html=1;align=center;verticalAlign=middle;resizable=0;points=[];autosize=1;strokeColor=none;fillColor=none;fontColor=default;fontSize=20;" vertex="1" parent="1">
          <mxGeometry x="332" y="820" width="140" height="60" as="geometry" />
        </mxCell>
        <mxCell id="7gA6LYK0TXoG6DX3NfZa-14" value="ModSecurity&lt;div&gt;192.168.0.30&lt;/div&gt;" style="text;html=1;align=center;verticalAlign=middle;resizable=0;points=[];autosize=1;strokeColor=none;fillColor=none;fontColor=default;fontSize=20;" vertex="1" parent="1">
          <mxGeometry x="460" y="490" width="140" height="60" as="geometry" />
        </mxCell>
        <mxCell id="7gA6LYK0TXoG6DX3NfZa-15" value="DVWA&lt;div&gt;192.168.0.20&lt;/div&gt;" style="text;html=1;align=center;verticalAlign=middle;resizable=0;points=[];autosize=1;strokeColor=none;fillColor=none;fontColor=default;fontSize=20;" vertex="1" parent="1">
          <mxGeometry x="150" y="499" width="140" height="60" as="geometry" />
        </mxCell>
      </root>
    </mxGraphModel>
  </diagram>
</mxfile>
